<?xml version="1.0" encoding="UTF-8" standalone="no"?>
<!-- Created with Inkscape (http://www.inkscape.org/) -->

<svg
   width="100.32202mm"
   height="70.29174mm"
   viewBox="0 0 100.32202 70.29174"
   version="1.1"
   id="svg5"
   inkscape:version="1.1 (c68e22c387, 2021-05-23)"
   sodipodi:docname="gpulogo.svg"
   xmlns:inkscape="http://www.inkscape.org/namespaces/inkscape"
   xmlns:sodipodi="http://sodipodi.sourceforge.net/DTD/sodipodi-0.dtd"
   xmlns="http://www.w3.org/2000/svg"
   xmlns:svg="http://www.w3.org/2000/svg">
  <sodipodi:namedview
     id="namedview7"
     pagecolor="#ffffff"
     bordercolor="#999999"
     borderopacity="1"
     inkscape:pageshadow="0"
     inkscape:pageopacity="0"
     inkscape:pagecheckerboard="true"
     inkscape:document-units="mm"
     showgrid="false"
     inkscape:zoom="6.0578004"
     inkscape:cx="175.47623"
     inkscape:cy="244.06549"
     inkscape:window-width="1920"
     inkscape:window-height="1009"
     inkscape:window-x="-8"
     inkscape:window-y="-8"
     inkscape:window-maximized="1"
     inkscape:current-layer="layer1"
     fit-margin-top="0"
     fit-margin-left="0"
     fit-margin-right="0"
     fit-margin-bottom="0" />
  <defs
     id="defs2" />
  <g
     inkscape:label="Livello 1"
     inkscape:groupmode="layer"
     id="layer1"
     transform="translate(-51.671799,-12.578823)">
    <rect
       style="opacity:1;fill:#000000;fill-opacity:1;fill-rule:nonzero;stroke:none;stroke-width:0.437314;stroke-linecap:square;paint-order:markers fill stroke"
       id="rect846"
       width="16.812906"
       height="9.4341183"
       x="51.671799"
       y="12.578823"
       ry="3.5290391" />
    <rect
       style="fill:#000000;fill-opacity:1;fill-rule:nonzero;stroke:none;stroke-width:0.89087;stroke-linecap:square;paint-order:markers fill stroke"
       id="rect846-0"
       width="69.772743"
       height="9.4341183"
       x="12.578823"
       y="-68.484711"
       ry="3.5290391"
       transform="rotate(90)" />
    <path
       id="rect3736"
       style="opacity:1;stroke-width:2.37255;stroke-linecap:square;paint-order:markers fill stroke"
       d="m 236.39062,100.59375 v 184.88477 h 290.05665 c 26.60239,0 48.01757,-18.90573 48.01757,-42.39063 V 142.98438 c 0,-23.48492 -21.41518,-42.39063 -48.01757,-42.39063 z m 44.9004,16.94141 h 32.35351 c 3.29229,0 5.94336,2.64912 5.94336,5.9414 0,3.29229 -2.65107,5.94336 -5.94336,5.94336 h -32.35351 c -3.29229,0 -5.94336,-2.65107 -5.94336,-5.94336 0,-3.29228 2.65107,-5.9414 5.94336,-5.9414 z m 220,0 h 32.35546 c 3.29231,0 5.94336,2.64912 5.94336,5.9414 0,3.29229 -2.65105,5.94336 -5.94336,5.94336 h -32.35546 c -3.29228,0 -5.94336,-2.65107 -5.94336,-5.94336 0,-3.29228 2.65108,-5.9414 5.94336,-5.9414 z m -42.78907,24.82031 c 28.11247,0 50.94336,22.8309 50.94336,50.94336 0,28.11246 -22.83089,50.9414 -50.94336,50.9414 -28.11246,0 -50.9414,-22.82894 -50.9414,-50.9414 0,-28.11246 22.82894,-50.94336 50.9414,-50.94336 z m -128.39843,0.46484 c 28.11245,0 50.9414,22.8309 50.9414,50.94336 0,28.11246 -22.82895,50.94141 -50.9414,50.94141 -28.11247,0 -50.94336,-22.82895 -50.94336,-50.94141 0,-28.11246 22.83089,-50.94336 50.94336,-50.94336 z m 128.39843,3.375 c -26.0392,0 -47.10351,21.0643 -47.10351,47.10352 0,26.03922 21.06431,47.11133 47.10351,47.11133 26.03921,0 47.10547,-21.07211 47.10547,-47.11133 0,-26.03922 -21.06626,-47.10352 -47.10547,-47.10352 z m 1.99219,0.26367 c 0.96484,0.003 1.9143,0.0719 2.83008,0.21094 2.44206,0.37085 4.64505,1.23847 6.24609,2.6582 2.1913,1.94313 2.57739,4.98771 1.94141,8.42969 -0.63602,3.44197 -2.29325,7.29578 -4.21484,10.91016 -3.84322,7.22876 -8.76368,13.50195 -8.76368,13.50195 l -0.0879,0.11133 -0.0879,-0.11133 c 0,0 -4.10089,-4.82366 -7.88476,-10.63086 -1.89196,-2.9036 -3.71185,-6.05442 -4.89454,-8.97656 -1.18262,-2.92214 -1.73712,-5.61445 -1.08398,-7.625 1.32408,-4.07597 6.00664,-6.87282 11.13867,-7.96484 1.60377,-0.34126 3.25329,-0.51888 4.86133,-0.51368 z m -0.002,0.11914 c -6.71365,-0.0329 -14.17738,3.12659 -15.88867,8.39454 -2.54982,7.84903 13.84179,27.12304 13.84179,27.12304 0,0 19.64891,-25.0518 11.04492,-32.68164 -2.17077,-1.92499 -5.48134,-2.8188 -8.99804,-2.83594 z m -130.38867,0.0801 C 304.06445,146.65816 283,167.72445 283,193.76367 c 0,26.03922 21.06429,47.11133 47.10352,47.11133 26.0392,0 47.10351,-21.07211 47.10351,-47.11133 0,-26.03922 -21.06431,-47.10547 -47.10351,-47.10547 z m 130.38867,0.0352 c 0.95338,0.005 1.89161,0.0757 2.79492,0.21289 2.40877,0.36593 4.57051,1.21159 6.12695,2.5918 2.11076,1.87179 2.49569,4.82127 1.86719,8.22265 -0.6285,3.40138 -2.27797,7.24112 -4.19336,10.84375 -3.7926,7.13357 -8.55428,13.20143 -8.65039,13.32422 -0.0998,-0.11739 -4.04622,-4.75439 -7.77344,-10.47461 -1.88696,-2.89604 -3.6918,-6.03235 -4.86523,-8.93164 -1.17343,-2.89928 -1.70572,-5.55673 -1.08399,-7.4707 1.28364,-3.95137 5.88805,-6.73728 10.96875,-7.81836 1.58771,-0.33785 3.21965,-0.50864 4.8086,-0.5 z m -128.40039,0.34961 c 3.51667,0.017 6.82729,0.90899 8.99804,2.83398 8.60402,7.62984 -11.04492,32.6836 -11.04492,32.6836 0,0 -16.39154,-19.27402 -13.8418,-27.12305 1.71133,-5.26795 9.17502,-8.42725 15.88868,-8.39453 z m 162.78515,31.21094 c 0.74873,-0.0144 1.44396,0.0733 2.07227,0.27734 4.07599,1.32409 6.87282,6.00662 7.96484,11.13867 1.09202,5.13206 0.48409,10.73542 -2.35547,13.9375 -1.94313,2.19123 -4.99552,2.5774 -8.4375,1.94141 -3.44197,-0.63599 -7.29579,-2.29519 -10.91015,-4.2168 -7.22869,-3.84322 -13.49414,-8.76172 -13.49414,-8.76172 l -0.11719,-0.0879 0.11133,-0.0898 c 0,0 4.82174,-4.09894 10.6289,-7.88281 2.90366,-1.89194 6.05439,-3.71185 8.97657,-4.89454 2.00897,-0.81309 3.91339,-1.33003 5.56054,-1.36132 z m 0,0.11914 c -8.70882,0.17884 -25.08984,14.10742 -25.08984,14.10742 0,0 25.05375,19.65088 32.68359,11.04687 5.60002,-6.31496 2.46679,-22.279 -5.56054,-24.88672 -0.61319,-0.19918 -1.29518,-0.28273 -2.03321,-0.26757 z m 0.002,0.11914 c 0.72797,-0.0155 1.39798,0.0655 1.99609,0.25976 3.95138,1.28361 6.72945,5.88027 7.81055,10.96094 1.08109,5.08068 0.45775,10.62541 -2.30274,13.73828 -1.87173,2.11078 -4.81541,2.49568 -8.21679,1.86719 -3.40139,-0.62849 -7.24115,-2.27604 -10.84375,-4.19141 -7.13084,-3.79114 -13.19685,-8.5526 -13.32422,-8.65234 0.11754,-0.0997 4.74663,-4.04626 10.46679,-7.77344 2.89607,-1.88701 6.04018,-3.6918 8.93946,-4.86523 1.99324,-0.80674 3.87303,-1.30942 5.47461,-1.34375 z M 366.47655,178.836 c 0.73804,-0.0151 1.42195,0.0684 2.03516,0.26758 8.02734,2.60771 11.15858,18.57176 5.55859,24.88671 -7.62985,8.60401 -32.68164,-11.04492 -32.68164,-11.04492 0,0 16.37908,-13.93051 25.08789,-14.10937 z m 53.37696,0.68359 c 0.97836,-0.0249 2.01614,0.0747 3.09179,0.27344 3.44198,0.63599 7.29771,2.29323 10.91211,4.21484 7.22873,3.84322 13.49414,8.75391 13.49414,8.75391 l 0.11719,0.0898 -0.11133,0.0957 c 0,0 -4.8217,4.09894 -10.6289,7.88281 -2.90359,1.89194 -6.05443,3.70598 -8.97657,4.88867 -2.92214,1.1827 -5.62225,1.74493 -7.63281,1.0918 -4.07596,-1.3241 -6.87282,-6.00665 -7.96484,-11.13867 -1.09202,-5.13206 -0.48605,-10.73545 2.35351,-13.9375 0.97153,-1.09561 2.21891,-1.74034 3.6543,-2.03126 0.53828,-0.10904 1.10437,-0.16855 1.69141,-0.18359 z m 0.008,0.11719 c -2.12512,0.0527 -3.95034,0.69697 -5.26172,2.17578 -5.59998,6.31496 -2.46679,22.27901 5.56055,24.88672 7.84905,2.54979 27.12304,-13.8418 27.12304,-13.8418 0,0 -17.18272,-13.47481 -27.42187,-13.2207 z m 0.008,0.11328 c 0.95426,-0.0227 1.97224,0.0751 3.03516,0.27148 3.40142,0.62849 7.2411,2.278 10.84375,4.19336 7.13355,3.79261 13.20931,8.54844 13.33203,8.64454 -0.10999,0.0935 -4.75769,4.04915 -10.48242,7.77929 -2.89607,1.88701 -6.03428,3.6918 -8.9336,4.86524 -2.89927,1.17344 -5.55671,1.70574 -7.4707,1.08398 -3.95135,-1.28361 -6.72754,-5.88807 -7.80859,-10.96875 -1.0811,-5.08067 -0.45769,-10.6176 2.30273,-13.73047 0.93589,-1.05539 2.14002,-1.68154 3.53516,-1.96289 0.52316,-0.10552 1.07396,-0.16221 1.64648,-0.17578 z m -128.40625,0.34961 c 10.2392,-0.2541 27.41992,13.22266 27.41992,13.22266 0,0 -19.27399,16.38963 -27.12304,13.83984 -8.02735,-2.60771 -11.16053,-18.57176 -5.56055,-24.88672 1.31138,-1.47882 3.13855,-2.12304 5.26367,-2.17578 z m 167.04102,2.92773 a 10.271946,10.271946 0 0 1 10.27343,10.27149 10.271946,10.271946 0 0 1 -10.27343,10.27148 10.271946,10.271946 0 0 1 -10.27149,-10.27148 10.271946,10.271946 0 0 1 10.27149,-10.27149 z m -128.39844,0.46289 a 10.271946,10.271946 0 0 1 10.27148,10.27344 10.271946,10.271946 0 0 1 -10.27148,10.27149 10.271946,10.271946 0 0 1 -10.27149,-10.27149 10.271946,10.271946 0 0 1 10.27149,-10.27344 z m 128.19336,20.60352 0.0957,0.11133 c 0,0 4.10089,4.8217 7.88477,10.6289 1.89195,2.9036 3.70403,6.04661 4.88672,8.96875 1.18284,2.92215 1.74493,5.62227 1.09179,7.63282 -1.32408,4.07597 -6.00664,6.87478 -11.13867,7.96679 -5.13207,1.09202 -10.73545,0.48405 -13.9375,-2.35546 -2.19129,-1.94313 -2.57739,-4.98772 -1.94141,-8.42969 0.63602,-3.44198 2.29326,-7.29773 4.21485,-10.91211 3.84325,-7.22876 8.76367,-13.5 8.76367,-13.5 z m 0.006,0.18359 c 0,0 -19.64894,25.0518 -11.04492,32.68164 6.31494,5.59998 22.27903,2.46875 24.88671,-5.55859 2.54982,-7.84906 -13.84179,-27.12305 -13.84179,-27.12305 z m 0.008,0.20118 c 0.096,0.11323 4.04456,4.75765 7.77344,10.48046 1.887,2.89605 3.68985,6.03431 4.86328,8.9336 1.17343,2.89929 1.70771,5.55673 1.08594,7.4707 -1.28364,3.95136 -5.88805,6.72751 -10.96875,7.8086 -5.08067,1.08105 -10.61762,0.45769 -13.73047,-2.30274 -2.11079,-1.8718 -2.49569,-4.81346 -1.86719,-8.21484 0.6285,-3.40139 2.27602,-7.24307 4.19141,-10.84571 3.79502,-7.13813 8.56224,-13.21501 8.65234,-13.33007 z m -128.40625,0.26171 c 0,0 16.38963,19.27399 13.83984,27.12305 -2.6077,8.02734 -18.57179,11.16053 -24.88671,5.56055 -8.60402,-7.62984 11.04687,-32.6836 11.04687,-32.6836 z m -48.61523,52.79493 h 32.35351 c 3.29227,0 5.94336,2.64912 5.94336,5.9414 0,3.29229 -2.65109,5.94336 -5.94336,5.94336 h -32.35351 c -3.29228,0 -5.94336,-2.65107 -5.94336,-5.94336 0,-3.29228 2.65108,-5.9414 5.94336,-5.9414 z m 210,0 h 32.35546 c 3.29231,0 5.94336,2.64912 5.94336,5.9414 0,3.29229 -2.65105,5.94336 -5.94336,5.94336 h -32.35546 c -3.29228,0 -5.94336,-2.65107 -5.94336,-5.94336 0,-3.29228 2.65108,-5.9414 5.94336,-5.9414 z"
       transform="scale(0.26458333)" />
    <rect
       style="fill:none;fill-opacity:1;fill-rule:nonzero;stroke:#000000;stroke-width:1.038;stroke-linecap:square;stroke-miterlimit:4;stroke-dasharray:none;stroke-opacity:1;paint-order:markers fill stroke"
       id="rect3984-9"
       width="9.2144413"
       height="26.539604"
       x="73.137123"
       y="-116.11927"
       ry="1.9784617"
       transform="rotate(90)" />
    <rect
       style="fill:none;fill-opacity:1;fill-rule:nonzero;stroke:#000000;stroke-width:1.034;stroke-linecap:square;stroke-miterlimit:4;stroke-dasharray:none;stroke-opacity:1;paint-order:markers fill stroke"
       id="rect3984-4-8"
       width="8.5326138"
       height="10.912483"
       x="73.818947"
       y="-87.521019"
       ry="1.7278098"
       transform="rotate(90)" />
    <g
       id="path6715-2"
       transform="translate(0,-0.98828571)" />
    <g
       id="path6715-0-8"
       transform="translate(0,-0.98828571)" />
    <g
       id="path6715-0-95-6"
       transform="translate(0,-0.98828571)" />
    <g
       id="path6715-0-9-6"
       transform="translate(0,-0.98828571)" />
    <rect
       style="fill:#000000;stroke-width:0.827993;stroke-linecap:square;stroke-miterlimit:4;stroke-dasharray:none;paint-order:markers fill stroke"
       id="rect878-8"
       width="1.2542368"
       height="5.2956662"
       x="79.320992"
       y="76.029922"
       ry="0.62711841" />
    <rect
       style="fill:#000000;stroke-width:0.827993;stroke-linecap:square;stroke-miterlimit:4;stroke-dasharray:none;paint-order:markers fill stroke"
       id="rect878-1"
       width="1.2542368"
       height="5.2956662"
       x="83.554329"
       y="76.029922"
       ry="0.62711841" />
    <rect
       style="fill:#000000;stroke-width:0.827993;stroke-linecap:square;stroke-miterlimit:4;stroke-dasharray:none;paint-order:markers fill stroke"
       id="rect878-8-0"
       width="1.2542368"
       height="5.2956662"
       x="97.989014"
       y="76.029922"
       ry="0.62711841" />
    <rect
       style="fill:#000000;stroke-width:0.827993;stroke-linecap:square;stroke-miterlimit:4;stroke-dasharray:none;paint-order:markers fill stroke"
       id="rect878-8-0-7"
       width="1.2542368"
       height="5.2956662"
       x="93.755676"
       y="76.029922"
       ry="0.62711841" />
    <rect
       style="fill:#000000;stroke-width:0.827993;stroke-linecap:square;stroke-miterlimit:4;stroke-dasharray:none;paint-order:markers fill stroke"
       id="rect878-1-6"
       width="1.2542368"
       height="5.2956662"
       x="106.45569"
       y="76.029922"
       ry="0.62711841" />
    <rect
       style="fill:#000000;stroke-width:0.827993;stroke-linecap:square;stroke-miterlimit:4;stroke-dasharray:none;paint-order:markers fill stroke"
       id="rect878-8-1"
       width="1.2542368"
       height="5.2956662"
       x="102.22235"
       y="76.029922"
       ry="0.62711841" />
    <rect
       style="fill:#000000;stroke-width:0.827993;stroke-linecap:square;stroke-miterlimit:4;stroke-dasharray:none;paint-order:markers fill stroke"
       id="rect878-1-9-8"
       width="1.2542368"
       height="5.2956662"
       x="110.68902"
       y="76.029922"
       ry="0.62711841" />
  </g>
</svg>
