<?xml version="1.0" encoding="UTF-8" standalone="no"?>
<!-- Created with Inkscape (http://www.inkscape.org/) -->

<svg
   width="46.015251mm"
   height="14.655408mm"
   viewBox="0 0 46.015251 14.655408"
   version="1.1"
   id="svg5"
   inkscape:version="1.1 (c68e22c387, 2021-05-23)"
   sodipodi:docname="raminactive.svg"
   xmlns:inkscape="http://www.inkscape.org/namespaces/inkscape"
   xmlns:sodipodi="http://sodipodi.sourceforge.net/DTD/sodipodi-0.dtd"
   xmlns="http://www.w3.org/2000/svg"
   xmlns:svg="http://www.w3.org/2000/svg">
  <sodipodi:namedview
     id="namedview7"
     pagecolor="#ffffff"
     bordercolor="#999999"
     borderopacity="1"
     inkscape:pageshadow="0"
     inkscape:pageopacity="0"
     inkscape:pagecheckerboard="true"
     inkscape:document-units="mm"
     showgrid="false"
     fit-margin-top="0"
     fit-margin-left="0"
     fit-margin-right="0"
     fit-margin-bottom="0"
     inkscape:zoom="1.4748507"
     inkscape:cx="-73.905785"
     inkscape:cy="-60.684108"
     inkscape:window-width="1920"
     inkscape:window-height="1009"
     inkscape:window-x="-8"
     inkscape:window-y="-8"
     inkscape:window-maximized="1"
     inkscape:current-layer="layer1" />
  <defs
     id="defs2" />
  <g
     inkscape:label="Livello 1"
     inkscape:groupmode="layer"
     id="layer1"
     transform="translate(-79.941387,-24.595929)">
    <path
       id="rect2081"
       style="fill:#949494;fill-opacity:1;stroke:#949494;stroke-width:2.5663;stroke-linecap:square;stroke-miterlimit:4;stroke-dasharray:none;stroke-opacity:1;paint-order:markers fill stroke"
       d="m 304.87695,94.244141 c -0.80473,0 -1.45312,0.646445 -1.45312,1.451171 V 113.1582 a 14.434574,9.1521264 0 0 1 13.17578,9.10938 14.434574,9.1521264 0 0 1 -13.17578,9.02539 v 14.32226 c 0,0.80473 0.64839,1.45313 1.45312,1.45313 h 50.55664 a 12.875961,15.352107 0 0 1 -0.17578,-2.47656 12.875961,15.352107 0 0 1 12.87696,-15.35157 12.875961,15.352107 0 0 1 12.875,15.35157 12.875961,15.352107 0 0 1 -0.17579,2.47656 h 92.48633 c 0.80474,0 1.45313,-0.6484 1.45313,-1.45313 v -14.23437 a 14.434574,9.1521264 0 0 1 -13.17578,-9.11328 14.434574,9.1521264 0 0 1 13.17578,-9.11133 V 95.695312 c 0,-0.804726 -0.64839,-1.451171 -1.45313,-1.451171 z m 36.48438,3.80664 h 18.10547 c 0.80472,0 1.45117,0.648396 1.45117,1.453125 V 125.7793 c 0,0.80473 -0.64645,1.45312 -1.45117,1.45312 h -18.10547 c -0.80473,0 -1.45313,-0.64839 -1.45313,-1.45312 V 99.503906 c 0,-0.804729 0.6484,-1.453125 1.45313,-1.453125 z m 26,0 h 18.10547 c 0.80473,0 1.45117,0.648396 1.45117,1.453125 V 125.7793 c 0,0.80473 -0.64644,1.45312 -1.45117,1.45312 h -18.10547 c -0.80473,0 -1.45313,-0.64839 -1.45313,-1.45312 V 99.503906 c 0,-0.804729 0.6484,-1.453125 1.45313,-1.453125 z m 26,0 h 18.10547 c 0.80473,0 1.45117,0.648396 1.45117,1.453125 V 125.7793 c 0,0.80473 -0.64644,1.45312 -1.45117,1.45312 h -18.10547 c -0.8047,0 -1.45313,-0.64839 -1.45313,-1.45312 V 99.503906 c 0,-0.804729 0.64843,-1.453125 1.45313,-1.453125 z m 26,0 h 18.10547 c 0.8047,0 1.45117,0.648396 1.45117,1.453125 V 125.7793 c 0,0.80473 -0.64647,1.45312 -1.45117,1.45312 h -18.10547 c -0.80474,0 -1.45313,-0.64839 -1.45313,-1.45312 V 99.503906 c 0,-0.804729 0.64839,-1.453125 1.45313,-1.453125 z M 313.16602,129.82617 h 1.49609 c 0.753,0 1.35937,0.60638 1.35937,1.35938 v 14.27343 c 0,0.75301 -0.60637,1.35938 -1.35937,1.35938 h -1.49609 c -0.753,0 -1.35938,-0.60637 -1.35938,-1.35938 v -14.27343 c 0,-0.753 0.60638,-1.35938 1.35938,-1.35938 z m 14.89062,0 h 1.49609 c 0.753,0 1.35938,0.60638 1.35938,1.35938 v 14.27343 c 0,0.75301 -0.60638,1.35938 -1.35938,1.35938 h -1.49609 c -0.753,0 -1.35742,-0.60637 -1.35742,-1.35938 v -14.27343 c 0,-0.753 0.60442,-1.35938 1.35742,-1.35938 z m 14.89258,0 h 1.49609 c 0.75299,0 1.35938,0.60638 1.35938,1.35938 v 14.27343 c 0,0.75301 -0.60639,1.35938 -1.35938,1.35938 h -1.49609 c -0.753,0 -1.35938,-0.60637 -1.35938,-1.35938 v -14.27343 c 0,-0.753 0.60638,-1.35938 1.35938,-1.35938 z m 47.44336,0 h 1.49609 c 0.753,0 1.35938,0.60638 1.35938,1.35938 v 14.27343 c 0,0.75301 -0.60638,1.35938 -1.35938,1.35938 h -1.49609 c -0.753,0 -1.35742,-0.60637 -1.35742,-1.35938 v -14.27343 c 0,-0.753 0.60442,-1.35938 1.35742,-1.35938 z m 14.89258,0 h 1.49609 c 0.753,0 1.35938,0.60638 1.35937,1.35938 v 14.27343 c 0,0.75301 -0.60637,1.35938 -1.35937,1.35938 h -1.49609 c -0.753,0 -1.35938,-0.60637 -1.35938,-1.35938 v -14.27343 c 0,-0.753 0.60638,-1.35938 1.35938,-1.35938 z m 14.89257,0 h 1.4961 c 0.75299,0 1.35937,0.60638 1.35937,1.35938 v 14.27343 c 0,0.75301 -0.60638,1.35938 -1.35937,1.35938 h -1.4961 c -0.75299,0 -1.35937,-0.60637 -1.35937,-1.35938 v -14.27343 c 0,-0.753 0.60638,-1.35938 1.35937,-1.35938 z m 14.89063,0 h 1.49609 c 0.753,0 1.35938,0.60638 1.35938,1.35938 v 14.27343 c 0,0.75301 -0.60638,1.35938 -1.35938,1.35938 h -1.49609 c -0.753,0 -1.35742,-0.60637 -1.35742,-1.35938 v -14.27343 c 0,-0.753 0.60442,-1.35938 1.35742,-1.35938 z m 14.89258,0 h 1.49609 c 0.753,0 1.35938,0.60638 1.35938,1.35938 v 14.27343 c 0,0.75301 -0.60638,1.35938 -1.35938,1.35938 h -1.49609 c -0.753,0 -1.35938,-0.60637 -1.35938,-1.35938 v -14.27343 c 0,-0.753 0.60638,-1.35938 1.35938,-1.35938 z m 14.89258,0 h 1.49609 c 0.75299,0 1.35937,0.60638 1.35937,1.35938 v 14.27343 c 0,0.75301 -0.60638,1.35938 -1.35937,1.35938 h -1.49609 c -0.75304,0 -1.35938,-0.60637 -1.35938,-1.35938 v -14.27343 c 0,-0.753 0.60634,-1.35938 1.35938,-1.35938 z"
       transform="scale(0.26458333)" />
  </g>
</svg>
